<svg width="627" height="398" xmlns="http://www.w3.org/2000/svg" xmlns:xlink="http://www.w3.org/1999/xlink" overflow="hidden"><defs><clipPath id="clip0"><path d="M718 145 1345 145 1345 543 718 543Z" fill-rule="evenodd" clip-rule="evenodd"/></clipPath></defs><g clip-path="url(#clip0)" transform="translate(-718 -145)"><rect x="719" y="145" width="625" height="398"/><path d="M758.5 208.334C758.5 202.35 763.35 197.5 769.334 197.5L812.666 197.5C818.65 197.5 823.5 202.35 823.5 208.334L823.5 477.666C823.5 483.65 818.65 488.5 812.666 488.5L769.334 488.5C763.35 488.5 758.5 483.65 758.5 477.666Z" stroke="#181717" stroke-miterlimit="8" stroke-opacity="0.380392" fill="#FFFFFF" fill-rule="evenodd"/><path d="M840.5 207.5C840.5 201.425 845.425 196.5 851.5 196.5L895.5 196.5C901.575 196.5 906.5 201.425 906.5 207.5L906.5 477.5C906.5 483.575 901.575 488.5 895.5 488.5L851.5 488.5C845.425 488.5 840.5 483.575 840.5 477.5Z" stroke="#181717" stroke-miterlimit="8" stroke-opacity="0.380392" fill="#099EE1" fill-rule="evenodd"/><path d="M1004.5 207.333C1004.5 201.35 1009.35 196.5 1015.33 196.5L1058.67 196.5C1064.65 196.5 1069.5 201.35 1069.5 207.333L1069.5 477.667C1069.5 483.65 1064.65 488.5 1058.67 488.5L1015.33 488.5C1009.35 488.5 1004.5 483.65 1004.5 477.667Z" stroke="#181717" stroke-miterlimit="8" stroke-opacity="0.380392" fill="#FFFFFF" fill-rule="evenodd"/><path d="M1083.5 207.5C1083.5 201.425 1088.42 196.5 1094.5 196.5L1138.5 196.5C1144.58 196.5 1149.5 201.425 1149.5 207.5L1149.5 477.5C1149.5 483.575 1144.58 488.5 1138.5 488.5L1094.5 488.5C1088.42 488.5 1083.5 483.575 1083.5 477.5Z" stroke="#181717" stroke-miterlimit="8" stroke-opacity="0.380392" fill="#099EE1" fill-rule="evenodd"/><path d="M923.5 207.333C923.5 201.35 928.35 196.5 934.334 196.5L977.667 196.5C983.65 196.5 988.5 201.35 988.5 207.333L988.5 477.667C988.5 483.65 983.65 488.5 977.667 488.5L934.334 488.5C928.35 488.5 923.5 483.65 923.5 477.667Z" stroke="#181717" stroke-miterlimit="8" stroke-opacity="0.380392" fill="#099EE1" fill-rule="evenodd"/><path d="M1163.5 207.333C1163.5 201.35 1168.35 196.5 1174.33 196.5L1217.67 196.5C1223.65 196.5 1228.5 201.35 1228.5 207.333L1228.5 477.667C1228.5 483.65 1223.65 488.5 1217.67 488.5L1174.33 488.5C1168.35 488.5 1163.5 483.65 1163.5 477.667Z" stroke="#181717" stroke-miterlimit="8" stroke-opacity="0.380392" fill="#F9B303" fill-rule="evenodd"/><path d="M1245.5 206.333C1245.5 200.35 1250.35 195.5 1256.33 195.5L1299.67 195.5C1305.65 195.5 1310.5 200.35 1310.5 206.333L1310.5 476.667C1310.5 482.65 1305.65 487.5 1299.67 487.5L1256.33 487.5C1250.35 487.5 1245.5 482.65 1245.5 476.667Z" stroke="#181717" stroke-miterlimit="8" stroke-opacity="0.380392" fill="#FFFFFF" fill-rule="evenodd"/><path d="M850 351 814 351C809.029 351 805 346.97 805 342L805 196 859 196 859 342C859 346.97 854.971 351 850 351Z" fill-rule="evenodd"/><path d="M934 311 898 311C893.03 311 889 306.97 889 302L889 197 943 197 943 302C943 306.97 938.97 311 934 311Z" fill-rule="evenodd"/><path d="M1092 370 1056 370C1051.03 370 1047 365.971 1047 361L1047 196 1101 196 1101 361C1101 365.971 1096.97 370 1092 370Z" fill-rule="evenodd"/><path d="M1175 302 1139 302C1134.03 302 1130 297.97 1130 293L1130 196 1184 196 1184 293C1184 297.97 1179.97 302 1175 302Z" fill-rule="evenodd"/><path d="M1254 342 1218 342C1213.03 342 1209 337.97 1209 333L1209 195 1263 195 1263 333C1263 337.97 1258.97 342 1254 342Z" fill-rule="evenodd"/></g></svg>