<svg width="625" height="426" xmlns="http://www.w3.org/2000/svg" xmlns:xlink="http://www.w3.org/1999/xlink" overflow="hidden"><defs><clipPath id="clip0"><path d="M55 105 680 105 680 531 55 531Z" fill-rule="evenodd" clip-rule="evenodd"/></clipPath></defs><g clip-path="url(#clip0)" transform="translate(-55 -105)"><rect x="107" y="139" width="558" height="392"/><path d="M109.5 245.333C109.5 239.35 114.35 234.5 120.334 234.5L163.667 234.5C169.65 234.5 174.5 239.35 174.5 245.333L174.5 515.667C174.5 521.65 169.65 526.5 163.667 526.5L120.334 526.5C114.35 526.5 109.5 521.65 109.5 515.667Z" stroke="#181717" stroke-miterlimit="8" stroke-opacity="0.380392" fill="#099EE1" fill-rule="evenodd"/><path d="M191.5 245.334C191.5 239.35 196.35 234.5 202.334 234.5L245.666 234.5C251.65 234.5 256.5 239.35 256.5 245.334L256.5 514.666C256.5 520.65 251.65 525.5 245.666 525.5L202.334 525.5C196.35 525.5 191.5 520.65 191.5 514.666Z" stroke="#181717" stroke-miterlimit="8" stroke-opacity="0.380392" fill="#FFFFFF" fill-rule="evenodd"/><path d="M355.5 245.334C355.5 239.35 360.35 234.5 366.334 234.5L409.666 234.5C415.65 234.5 420.5 239.35 420.5 245.334L420.5 514.666C420.5 520.65 415.65 525.5 409.666 525.5L366.334 525.5C360.35 525.5 355.5 520.65 355.5 514.666Z" stroke="#181717" stroke-miterlimit="8" stroke-opacity="0.380392" fill="#FFFFFF" fill-rule="evenodd"/><path d="M434.5 245.5C434.5 239.425 439.425 234.5 445.5 234.5L489.5 234.5C495.575 234.5 500.5 239.425 500.5 245.5L500.5 514.5C500.5 520.575 495.575 525.5 489.5 525.5L445.5 525.5C439.425 525.5 434.5 520.575 434.5 514.5Z" stroke="#181717" stroke-miterlimit="8" stroke-opacity="0.380392" fill="#099EE1" fill-rule="evenodd"/><path d="M274.5 245.334C274.5 239.35 279.35 234.5 285.334 234.5L328.666 234.5C334.65 234.5 339.5 239.35 339.5 245.334L339.5 514.666C339.5 520.65 334.65 525.5 328.666 525.5L285.334 525.5C279.35 525.5 274.5 520.65 274.5 514.666Z" stroke="#181717" stroke-miterlimit="8" stroke-opacity="0.380392" fill="#099EE1" fill-rule="evenodd"/><path d="M157 202.834C157 197.955 160.955 194 165.834 194L201.166 194C206.045 194 210 197.955 210 202.834L210 387.166C210 392.045 206.045 396 201.166 396L165.834 396C160.955 396 157 392.045 157 387.166Z" fill-rule="evenodd"/><path d="M514.5 245.334C514.5 239.35 519.35 234.5 525.334 234.5L568.666 234.5C574.65 234.5 579.5 239.35 579.5 245.334L579.5 514.666C579.5 520.65 574.65 525.5 568.666 525.5L525.334 525.5C519.35 525.5 514.5 520.65 514.5 514.666Z" stroke="#181717" stroke-miterlimit="8" stroke-opacity="0.380392" fill="#F9B303" fill-rule="evenodd"/><path d="M596.5 244.333C596.5 238.35 601.35 233.5 607.334 233.5L650.667 233.5C656.65 233.5 661.5 238.35 661.5 244.333L661.5 514.667C661.5 520.65 656.65 525.5 650.667 525.5L607.334 525.5C601.35 525.5 596.5 520.65 596.5 514.667Z" stroke="#181717" stroke-miterlimit="8" stroke-opacity="0.380392" fill="#FFFFFF" fill-rule="evenodd"/><path d="M240 154C240 149.029 244.029 145 249 145L285 145C289.971 145 294 149.029 294 154L294 338C294 342.971 289.971 347 285 347L249 347C244.029 347 240 342.971 240 338Z" fill-rule="evenodd"/><path d="M398 214.834C398 209.955 401.955 206 406.834 206L442.166 206C447.045 206 451 209.955 451 214.834L451 399.166C451 404.045 447.045 408 442.166 408L406.834 408C401.955 408 398 404.045 398 399.166Z" fill-rule="evenodd"/><path d="M481 147C481 142.029 485.029 138 490 138L526 138C530.971 138 535 142.029 535 147L535 331C535 335.971 530.971 340 526 340L490 340C485.029 340 481 335.971 481 331Z" fill-rule="evenodd"/><path d="M560 188C560 183.029 564.029 179 569 179L605 179C609.971 179 614 183.029 614 188L614 372C614 376.971 609.971 381 605 381L569 381C564.029 381 560 376.971 560 372Z" fill-rule="evenodd"/><text fill="#099EE1" font-family="Segoe UI Symbol,Segoe UI Symbol_MSFontService,sans-serif" font-weight="400" font-size="88" transform="translate(108.8 218)">h<tspan x="49.8333" y="0">a</tspan><tspan x="94.6667" y="0">r</tspan>monize<tspan fill="#FDCD55" x="427.16" y="0">io</tspan></text><path d="M521 207.167C521 205.97 521.97 205 523.167 205L531.833 205C533.03 205 534 205.97 534 207.167L534 215.833C534 217.03 533.03 218 531.833 218L523.167 218C521.97 218 521 217.03 521 215.833Z" fill="#FFFFFF" fill-rule="evenodd"/></g></svg>