<svg width="627" height="398" xmlns="http://www.w3.org/2000/svg" xmlns:xlink="http://www.w3.org/1999/xlink" overflow="hidden"><defs><clipPath id="clip0"><path d="M-28-33 599-33 599 365-28 365Z" fill-rule="evenodd" clip-rule="evenodd"/></clipPath></defs><g clip-path="url(#clip0)" transform="translate(28 33)"><rect x="-27" y="-33" width="625" height="398"/><path d="M12.5001 30.3336C12.5001 24.3504 17.3504 19.5001 23.3337 19.5001L66.6665 19.5001C72.6497 19.5001 77.5001 24.3504 77.5001 30.3336L77.5001 299.666C77.5001 305.65 72.6497 310.5 66.6665 310.5L23.3337 310.5C17.3504 310.5 12.5001 305.65 12.5001 299.666Z" stroke="#181717" stroke-miterlimit="8" stroke-opacity="0.380392" fill="#099EE1" fill-rule="evenodd"/><path d="M94.5001 29.5002C94.5001 23.425 99.425 18.5001 105.5 18.5001L149.5 18.5001C155.575 18.5001 160.5 23.425 160.5 29.5002L160.5 299.5C160.5 305.575 155.575 310.5 149.5 310.5L105.5 310.5C99.425 310.5 94.5001 305.575 94.5001 299.5Z" stroke="#181717" stroke-miterlimit="8" stroke-opacity="0.380392" fill="#FFFFFF" fill-rule="evenodd"/><path d="M258.5 29.3335C258.5 23.3504 263.35 18.5001 269.334 18.5001L312.667 18.5001C318.65 18.5001 323.5 23.3504 323.5 29.3335L323.5 299.667C323.5 305.65 318.65 310.5 312.667 310.5L269.334 310.5C263.35 310.5 258.5 305.65 258.5 299.667Z" stroke="#181717" stroke-miterlimit="8" stroke-opacity="0.380392" fill="#FFFFFF" fill-rule="evenodd"/><path d="M337.5 29.5002C337.5 23.425 342.425 18.5001 348.5 18.5001L392.5 18.5001C398.575 18.5001 403.5 23.425 403.5 29.5002L403.5 299.5C403.5 305.575 398.575 310.5 392.5 310.5L348.5 310.5C342.425 310.5 337.5 305.575 337.5 299.5Z" stroke="#181717" stroke-miterlimit="8" stroke-opacity="0.380392" fill="#099EE1" fill-rule="evenodd"/><path d="M177.5 29.3335C177.5 23.3504 182.35 18.5001 188.334 18.5001L231.667 18.5001C237.65 18.5001 242.5 23.3504 242.5 29.3335L242.5 299.667C242.5 305.65 237.65 310.5 231.667 310.5L188.334 310.5C182.35 310.5 177.5 305.65 177.5 299.667Z" stroke="#181717" stroke-miterlimit="8" stroke-opacity="0.380392" fill="#099EE1" fill-rule="evenodd"/><path d="M60 20.8335C60 15.9549 63.9549 12 68.8335 12L104.167 12C109.045 12 113 15.9549 113 20.8335L113 165.167C113 170.045 109.045 174 104.167 174L68.8335 174C63.9549 174 60 170.045 60 165.167Z" fill-rule="evenodd"/><path d="M417.5 29.3335C417.5 23.3504 422.35 18.5001 428.334 18.5001L471.667 18.5001C477.65 18.5001 482.5 23.3504 482.5 29.3335L482.5 299.667C482.5 305.65 477.65 310.5 471.667 310.5L428.334 310.5C422.35 310.5 417.5 305.65 417.5 299.667Z" stroke="#181717" stroke-miterlimit="8" stroke-opacity="0.380392" fill="#F9B303" fill-rule="evenodd"/><path d="M499.5 29.3336C499.5 23.3504 504.35 18.5001 510.334 18.5001L553.666 18.5001C559.65 18.5001 564.5 23.3504 564.5 29.3336L564.5 298.666C564.5 304.65 559.65 309.5 553.666 309.5L510.334 309.5C504.35 309.5 499.5 304.65 499.5 298.666Z" stroke="#181717" stroke-miterlimit="8" stroke-opacity="0.380392" fill="#FFFFFF" fill-rule="evenodd"/><path d="M143 21.0002C143 16.0295 147.03 12 152 12L188 12C192.97 12 197 16.0295 197 21.0002L197 122C197 126.97 192.97 131 188 131L152 131C147.03 131 143 126.97 143 122Z" fill-rule="evenodd"/><path d="M301 20.8335C301 15.9549 304.955 12 309.833 12L345.167 12C350.045 12 354 15.9549 354 20.8335L354 183.167C354 188.045 350.045 192 345.167 192L309.833 192C304.955 192 301 188.045 301 183.167Z" fill-rule="evenodd"/><path d="M384 19.0002C384 14.0295 388.03 10 393 10L429 10C433.97 10 438 14.0295 438 19.0002L438 115C438 119.97 433.97 124 429 124L393 124C388.03 124 384 119.97 384 115Z" fill-rule="evenodd"/><path d="M463 19.0001C463 14.0295 467.03 10 472 10L508 10C512.971 10 517 14.0295 517 19.0001L517 156C517 160.971 512.971 165 508 165L472 165C467.03 165 463 160.971 463 156Z" fill-rule="evenodd"/></g></svg>